# xmcd
#
# Track frame offsets: 
#        150
#        26967
#        56077
#        82052
#        109900
#        134167
#        148168
#        179126
#        228207
#        254133
#        288409
#        325028
#        345950
#
# Disc length: 4716 seconds
#
# Revision: 1
# Processed by: cddbd v1.5.2PL0 Copyright (c) Steve Scherf et al.
# Submitted via: ExactAudioCopy v0.99pb5
#
DISCID=d3126a0d
DTITLE=Kasa Chorych - Live
DYEAR=2006
DGENRE=Blues
TTITLE0=Polski  Blues
TTITLE1=Jak nas gonili Zomowcy z pa³ami (Jak nas gonili tacy jedni)
TTITLE2=Jak sie czujesz ze mna w lozku
TTITLE3=Blues bez tytulu
TTITLE4=Blues corek naszych
TTITLE5=Zgnila porzeczka
TTITLE6=Jak nas gonili tacy jedni
TTITLE7=Gdanski blues
TTITLE8=Szlaufik blues
TTITLE9=Blues o pieknej Kobiecie
TTITLE10=Niewinni i ja
TTITLE11=Skibowo-Riedlowy Blues
TTITLE12=Nie
EXTD=
EXTT0=
EXTT1=
EXTT2=
EXTT3=
EXTT4=
EXTT5=
EXTT6=
EXTT7=
EXTT8=
EXTT9=
EXTT10=
EXTT11=
EXTT12=
PLAYORDER=
